<svg preserveAspectRatio="none" width="100%" height="100%" overflow="visible" style="display: block;" viewBox="0 0 149.692 16.4221" fill="none" xmlns="http://www.w3.org/2000/svg">
<g id="&#237;&#149;&#152;&#235;&#139;&#168;">
<path id="Vector" d="M148.196 7.44568C148.425 7.57178 148.545 7.7724 148.557 8.04753C148.568 8.3112 148.511 8.54621 148.385 8.75256C148.259 8.97038 148.07 9.12514 147.817 9.21685C147.577 9.30856 147.336 9.29137 147.095 9.16526C146.533 8.85574 146 8.55194 145.496 8.25388C145.003 7.95582 144.522 7.65776 144.051 7.3597C143.536 7.02724 143.146 6.71772 142.882 6.43112C142.63 6.13306 142.481 5.88658 142.435 5.69169H142.418C142.361 5.92097 142.2 6.18464 141.936 6.48271C141.684 6.7693 141.3 7.07883 140.784 7.41128C140.314 7.70935 139.827 8.00741 139.323 8.30547C138.83 8.60353 138.302 8.90733 137.741 9.21685C137.5 9.34295 137.259 9.36015 137.018 9.26844C136.778 9.17673 136.588 9.01623 136.451 8.78695C136.325 8.56914 136.268 8.32267 136.279 8.04753C136.29 7.7724 136.411 7.57178 136.64 7.44568C137.133 7.17054 137.626 6.88968 138.119 6.60308C138.612 6.30502 139.122 5.98976 139.649 5.6573C140.234 5.27899 140.652 4.86056 140.905 4.402C141.168 3.94345 141.3 3.39318 141.3 2.7512V1.83982C141.3 1.50736 141.409 1.26662 141.627 1.11759C141.856 0.968559 142.12 0.894043 142.418 0.894043C142.716 0.894043 142.974 0.968559 143.192 1.11759C143.421 1.26662 143.536 1.50736 143.536 1.83982V2.7512C143.536 3.39318 143.662 3.94345 143.914 4.402C144.178 4.86056 144.602 5.27899 145.186 5.6573C145.714 5.98976 146.224 6.30502 146.717 6.60308C147.21 6.88968 147.703 7.17054 148.196 7.44568ZM135.918 13.791C135.654 13.791 135.459 13.6992 135.333 13.5158C135.207 13.3324 135.144 13.1146 135.144 12.8624C135.144 12.5987 135.207 12.3752 135.333 12.1917C135.459 12.0083 135.654 11.9166 135.918 11.9166H148.918C149.182 11.9166 149.376 12.0083 149.503 12.1917C149.629 12.3752 149.692 12.5987 149.692 12.8624C149.692 13.1146 149.629 13.3324 149.503 13.5158C149.376 13.6992 149.182 13.791 148.918 13.791H135.918Z" fill="var(--fill-0, #808080)"/>
<path id="Vector_2" d="M122.846 4.76317H126.182V2.08062C126.182 1.77109 126.291 1.54181 126.509 1.39278C126.738 1.24375 126.99 1.16924 127.265 1.16924C127.541 1.16924 127.787 1.24375 128.005 1.39278C128.234 1.54181 128.349 1.77109 128.349 2.08062V9.85316C128.349 10.392 128.24 10.7645 128.022 10.9709C127.816 11.1772 127.437 11.2804 126.887 11.2804H122.141C121.591 11.2804 121.207 11.1772 120.989 10.9709C120.783 10.7645 120.679 10.392 120.679 9.85316V2.08062C120.679 1.77109 120.788 1.54181 121.006 1.39278C121.235 1.24375 121.488 1.16924 121.763 1.16924C122.038 1.16924 122.284 1.24375 122.502 1.39278C122.731 1.54181 122.846 1.77109 122.846 2.08062V4.76317ZM125.787 9.44045C126.05 9.44045 126.182 9.30862 126.182 9.04495V6.60314H122.846V9.04495C122.846 9.30862 122.978 9.44045 123.242 9.44045H125.787ZM133.009 14.2725C133.009 14.5935 132.894 14.8285 132.665 14.9775C132.447 15.1266 132.189 15.2011 131.891 15.2011C131.604 15.2011 131.347 15.1266 131.117 14.9775C130.899 14.8285 130.791 14.5935 130.791 14.2725V1.10045C130.791 0.779465 130.899 0.544454 131.117 0.395423C131.347 0.246391 131.604 0.171875 131.891 0.171875C132.189 0.171875 132.447 0.246391 132.665 0.395423C132.894 0.544454 133.009 0.779465 133.009 1.10045V14.2725Z" fill="var(--fill-0, #808080)"/>
<path id="Vector_3" d="M110.548 4.40206C110.548 4.73452 110.571 5.04404 110.617 5.33064C110.663 5.61724 110.731 5.89237 110.823 6.15604C110.926 6.40825 111.058 6.66045 111.219 6.91266C111.379 7.1534 111.58 7.40561 111.821 7.66928C112.13 8.00174 112.44 8.32845 112.749 8.64944C113.07 8.97043 113.362 9.24557 113.626 9.47485C113.844 9.66974 113.93 9.90474 113.884 10.1799C113.838 10.4435 113.729 10.6671 113.557 10.8505C113.477 10.9308 113.38 10.9995 113.265 11.0569C113.15 11.1142 113.03 11.1543 112.904 11.1772C112.789 11.1887 112.669 11.1772 112.543 11.1428C112.428 11.1085 112.319 11.0454 112.216 10.9537C111.987 10.7473 111.735 10.5123 111.459 10.2487C111.196 9.97353 110.926 9.68693 110.651 9.38887C110.422 9.14813 110.233 8.94177 110.084 8.76982C109.935 8.59786 109.814 8.44883 109.723 8.32272C109.642 8.18516 109.579 8.07052 109.534 7.97881C109.488 7.88709 109.459 7.80111 109.448 7.72087H109.43C109.407 7.82404 109.373 7.92722 109.327 8.03039C109.281 8.12211 109.213 8.23675 109.121 8.37431C109.041 8.50042 108.926 8.64944 108.777 8.8214C108.628 8.99336 108.439 9.19971 108.209 9.44045C107.934 9.73852 107.648 10.0308 107.35 10.3174C107.063 10.604 106.748 10.9078 106.404 11.2288C106.186 11.4237 105.94 11.4868 105.664 11.418C105.401 11.3377 105.189 11.2116 105.028 11.0397C104.856 10.8448 104.765 10.6155 104.753 10.3518C104.742 10.0882 104.839 9.85889 105.045 9.664C105.756 9.01056 106.421 8.34565 107.04 7.66928C107.281 7.40561 107.481 7.1534 107.642 6.91266C107.802 6.66045 107.929 6.40825 108.02 6.15604C108.123 5.89237 108.198 5.61724 108.244 5.33064C108.29 5.04404 108.313 4.73452 108.313 4.40206V1.92586C108.313 1.5934 108.422 1.35266 108.639 1.20363C108.869 1.0546 109.132 0.980082 109.43 0.980082C109.728 0.980082 109.986 1.0546 110.204 1.20363C110.433 1.35266 110.548 1.5934 110.548 1.92586V4.40206ZM113.471 6.55155C113.208 6.55155 113.013 6.45983 112.887 6.27641C112.761 6.09299 112.698 5.87518 112.698 5.62297C112.698 5.3593 112.761 5.13575 112.887 4.95233C113.013 4.76891 113.208 4.6772 113.471 4.6772H115.621V1.10045C115.621 0.779465 115.73 0.544454 115.948 0.395423C116.177 0.246391 116.435 0.171875 116.721 0.171875C116.997 0.171875 117.243 0.246391 117.461 0.395423C117.69 0.544454 117.805 0.779465 117.805 1.10045V14.2725C117.805 14.5935 117.69 14.8285 117.461 14.9775C117.243 15.1266 116.997 15.2011 116.721 15.2011C116.435 15.2011 116.177 15.1266 115.948 14.9775C115.73 14.8285 115.621 14.5935 115.621 14.2725V6.55155H113.471Z" fill="var(--fill-0, #808080)"/>
<path id="Vector_4" d="M86.522 3.23274C86.2583 3.23274 86.0634 3.14103 85.9373 2.95761C85.8112 2.77419 85.7481 2.55637 85.7481 2.30417C85.7481 2.0405 85.8112 1.81695 85.9373 1.63353C86.0634 1.4501 86.2583 1.35839 86.522 1.35839H91.6635C92.2138 1.35839 92.5921 1.46157 92.7985 1.66792C93.0163 1.87427 93.1252 2.24684 93.1252 2.78565V4.66C93.1252 5.38223 93.0564 6.01274 92.9188 6.55155C92.7813 7.07889 92.5004 7.59476 92.0762 8.09918C91.6521 8.60359 91.0445 9.14239 90.2535 9.71559C89.4739 10.2773 88.4364 10.9594 87.141 11.7619C86.9003 11.9109 86.6481 11.9396 86.3844 11.8479C86.1322 11.7447 85.9373 11.5899 85.7997 11.3836C85.6622 11.1772 85.5934 10.9365 85.5934 10.6614C85.5934 10.3862 85.7195 10.1684 85.9717 10.0079C86.7512 9.5379 87.4161 9.1252 87.9664 8.76982C88.5167 8.40297 88.9752 8.07625 89.3421 7.78965C89.7089 7.50305 89.9955 7.23938 90.2019 6.99864C90.4197 6.7579 90.5802 6.51715 90.6834 6.27641C90.798 6.02421 90.8668 5.76627 90.8897 5.5026C90.9241 5.23893 90.9413 4.93513 90.9413 4.59122V3.62825C90.9413 3.36458 90.8095 3.23274 90.5458 3.23274H86.522ZM99.3157 5.24466C99.5908 5.24466 99.7915 5.33637 99.9176 5.51979C100.044 5.70322 100.107 5.92677 100.107 6.19044C100.107 6.45411 100.044 6.68338 99.9176 6.87827C99.7915 7.06169 99.5908 7.1534 99.3157 7.1534H97.6993V14.2725C97.6993 14.5935 97.5846 14.8285 97.3554 14.9775C97.1376 15.1266 96.8853 15.2011 96.5988 15.2011C96.3122 15.2011 96.0542 15.1266 95.8249 14.9775C95.6071 14.8285 95.4982 14.5935 95.4982 14.2725V1.10045C95.4982 0.779465 95.6071 0.544454 95.8249 0.395423C96.0542 0.246391 96.3122 0.171875 96.5988 0.171875C96.8853 0.171875 97.1376 0.246391 97.3554 0.395423C97.5846 0.544454 97.6993 0.779465 97.6993 1.10045V5.24466H99.3157Z" fill="var(--fill-0, #808080)"/>
<path id="Vector_5" d="M78.439 1.08326C78.7027 1.08326 78.8976 1.17497 79.0237 1.35839C79.1498 1.54181 79.2129 1.74817 79.2129 1.97744C79.2129 2.20672 79.1498 2.41307 79.0237 2.5965C78.8976 2.77992 78.7027 2.87163 78.439 2.87163H77.7168V7.25658C77.8888 7.24511 78.055 7.23365 78.2155 7.22219C78.376 7.21072 78.5365 7.19353 78.697 7.1706C78.9607 7.14767 79.167 7.21072 79.316 7.35976C79.4651 7.50879 79.5511 7.69794 79.574 7.92722C79.5969 8.17942 79.5568 8.4087 79.4536 8.61505C79.3619 8.8214 79.1899 8.93604 78.9377 8.95897C78.5938 8.99336 78.1983 9.02776 77.7512 9.06215C77.3156 9.09654 76.7882 9.1252 76.1692 9.14813C75.5501 9.15959 74.8164 9.17106 73.9681 9.18252C73.1313 9.19398 72.1396 9.19971 70.9932 9.19971C70.7296 9.19971 70.5347 9.108 70.4086 8.92458C70.2825 8.74116 70.2194 8.5348 70.2194 8.30553C70.2194 8.07625 70.2825 7.8699 70.4086 7.68648C70.5347 7.50305 70.7296 7.41134 70.9932 7.41134H71.9046V2.87163H71.0964C70.8327 2.87163 70.6379 2.77992 70.5117 2.5965C70.3856 2.41307 70.3226 2.20672 70.3226 1.97744C70.3226 1.74817 70.3856 1.54181 70.5117 1.35839C70.6379 1.17497 70.8327 1.08326 71.0964 1.08326H78.439ZM73.9853 7.39415C74.2605 7.39415 74.5356 7.39415 74.8107 7.39415C75.0859 7.38268 75.361 7.37122 75.6361 7.35976V2.87163H73.9853V7.39415ZM81.07 7.11901H79.7975C79.5339 7.11901 79.3447 7.03303 79.2301 6.86108C79.1269 6.67765 79.0753 6.45984 79.0753 6.20763C79.0753 5.95542 79.1269 5.74334 79.2301 5.57138C79.3447 5.38796 79.5339 5.29625 79.7975 5.29625H81.07V4.47085H79.7975C79.5339 4.47085 79.3447 4.38487 79.2301 4.21291C79.1269 4.02948 79.0753 3.81167 79.0753 3.55946C79.0753 3.30726 79.1269 3.09518 79.2301 2.92322C79.3447 2.73979 79.5339 2.64808 79.7975 2.64808H81.07V1.10045C81.07 0.779465 81.1789 0.544454 81.3967 0.395423C81.626 0.246391 81.8782 0.171875 82.1534 0.171875C82.4285 0.171875 82.675 0.246391 82.8928 0.395423C83.1221 0.544454 83.2367 0.779465 83.2367 1.10045V9.06215C83.2367 9.38314 83.1221 9.61815 82.8928 9.76718C82.675 9.91621 82.4285 9.99072 82.1534 9.99072C81.8782 9.99072 81.626 9.91621 81.3967 9.76718C81.1789 9.61815 81.07 9.38314 81.07 9.06215V7.11901ZM72.902 13.2579C72.902 12.1918 73.3605 11.4008 74.2776 10.8849C75.2062 10.3576 76.4787 10.0939 78.0951 10.0939C79.7115 10.0939 80.9783 10.3576 81.8954 10.8849C82.824 11.4123 83.2883 12.2033 83.2883 13.2579C83.2883 14.3241 82.824 15.1151 81.8954 15.631C80.9783 16.1583 79.7115 16.422 78.0951 16.422C76.4787 16.422 75.2062 16.1583 74.2776 15.631C73.3605 15.1151 72.902 14.3241 72.902 13.2579ZM81.1044 13.2579C81.1044 12.8223 80.8751 12.4784 80.4166 12.2262C79.958 11.974 79.1842 11.8479 78.0951 11.8479C77.0061 11.8479 76.2322 11.974 75.7737 12.2262C75.3151 12.4784 75.0859 12.8223 75.0859 13.2579C75.0859 13.6936 75.3151 14.0375 75.7737 14.2897C76.2322 14.5419 77.0061 14.668 78.0951 14.668C79.1842 14.668 79.958 14.5419 80.4166 14.2897C80.8751 14.0375 81.1044 13.6936 81.1044 13.2579Z" fill="var(--fill-0, #808080)"/>
<path id="Vector_6" d="M55.4957 4.24738C56.6421 4.24738 57.542 4.49386 58.1954 4.98681C58.8603 5.47975 59.1928 6.16759 59.1928 7.05031C59.1928 7.93303 58.8603 8.62087 58.1954 9.11382C57.542 9.60677 56.6421 9.85324 55.4957 9.85324C54.3493 9.85324 53.4436 9.60677 52.7787 9.11382C52.1253 8.62087 51.7986 7.93303 51.7986 7.05031C51.7986 6.16759 52.1253 5.47975 52.7787 4.98681C53.4436 4.49386 54.3493 4.24738 55.4957 4.24738ZM54.3951 1.77117V0.928578C54.3951 0.607588 54.5041 0.372577 54.7219 0.223546C54.9511 0.0745146 55.2091 0 55.4957 0C55.7823 0 56.0345 0.0745146 56.2523 0.223546C56.4816 0.372577 56.5962 0.607588 56.5962 0.928578V1.77117H59.21C59.4737 1.77117 59.6686 1.86289 59.7947 2.04631C59.9208 2.22973 59.9838 2.44755 59.9838 2.69975C59.9838 2.94049 59.9208 3.15258 59.7947 3.336C59.6686 3.51942 59.4737 3.61114 59.21 3.61114H51.6094C51.3457 3.61114 51.1509 3.51942 51.0248 3.336C50.8987 3.15258 50.8356 2.94049 50.8356 2.69975C50.8356 2.44755 50.8987 2.22973 51.0248 2.04631C51.1509 1.86289 51.3457 1.77117 51.6094 1.77117H54.3951ZM55.4957 8.18524C56.0803 8.18524 56.5102 8.08207 56.7854 7.87572C57.072 7.6579 57.2153 7.38276 57.2153 7.05031C57.2153 6.71786 57.072 6.44845 56.7854 6.2421C56.5102 6.02429 56.0803 5.91538 55.4957 5.91538C54.911 5.91538 54.4754 6.02429 54.1888 6.2421C53.9137 6.44845 53.7761 6.71786 53.7761 7.05031C53.7761 7.38276 53.9137 7.6579 54.1888 7.87572C54.4754 8.08207 54.911 8.18524 55.4957 8.18524ZM63.9733 9.49213C63.9733 9.80165 63.8643 10.0309 63.6465 10.18C63.4287 10.329 63.1822 10.4035 62.9071 10.4035C62.6205 10.4035 62.3683 10.329 62.1505 10.18C61.9327 10.0309 61.8238 9.80165 61.8238 9.49213V8.70112H60.4997C60.236 8.70112 60.0469 8.61514 59.9322 8.44318C59.829 8.25975 59.7775 8.04194 59.7775 7.78974C59.7775 7.54899 59.829 7.34264 59.9322 7.17068C60.0469 6.98726 60.236 6.89555 60.4997 6.89555H61.8238V5.8466H60.4137C60.15 5.8466 59.9609 5.76062 59.8462 5.58866C59.7431 5.40524 59.6915 5.18742 59.6915 4.93522C59.6915 4.69447 59.7431 4.48813 59.8462 4.31617C59.9609 4.13274 60.15 4.04103 60.4137 4.04103H61.8238V1.08334C61.8238 0.773815 61.9327 0.544536 62.1505 0.395505C62.3683 0.246474 62.6205 0.171957 62.9071 0.171957C63.1822 0.171957 63.4287 0.246474 63.6465 0.395505C63.8643 0.544536 63.9733 0.773815 63.9733 1.08334V9.49213ZM53.7073 13.43C53.7073 12.9141 53.8219 12.467 54.0512 12.0887C54.292 11.7104 54.6359 11.4009 55.083 11.1601C55.5301 10.9079 56.0689 10.7245 56.6994 10.6099C57.3414 10.4952 58.0636 10.4379 58.8661 10.4379C59.6686 10.4379 60.385 10.4952 61.0156 10.6099C61.6575 10.7245 62.2021 10.9079 62.6492 11.1601C63.0963 11.4009 63.4344 11.7104 63.6637 12.0887C63.9045 12.467 64.0248 12.9141 64.0248 13.43C64.0248 13.9459 63.9045 14.393 63.6637 14.7713C63.4344 15.1496 63.0963 15.4591 62.6492 15.6998C62.2021 15.952 61.6575 16.1355 61.0156 16.2501C60.385 16.3647 59.6686 16.4221 58.8661 16.4221C58.0636 16.4221 57.3414 16.3647 56.6994 16.2501C56.0689 16.1355 55.5301 15.952 55.083 15.6998C54.6359 15.4591 54.292 15.1496 54.0512 14.7713C53.8219 14.393 53.7073 13.9459 53.7073 13.43ZM61.8582 13.43C61.8582 13.0402 61.6289 12.7307 61.1703 12.5014C60.7118 12.2721 59.9437 12.1575 58.8661 12.1575C57.7885 12.1575 57.0204 12.2721 56.5618 12.5014C56.1033 12.7307 55.874 13.0402 55.874 13.43C55.874 13.8198 56.1033 14.1293 56.5618 14.3586C57.0204 14.5878 57.7885 14.7025 58.8661 14.7025C59.9437 14.7025 60.7118 14.5878 61.1703 14.3586C61.6289 14.1293 61.8582 13.8198 61.8582 13.43Z" fill="var(--fill-0, #808080)"/>
<path id="Vector_7" d="M43.7835 1.56491C43.7835 1.94322 43.8981 2.25848 44.1274 2.51069C44.3567 2.76289 44.7808 3.0151 45.3999 3.2673C45.9272 3.48512 46.4087 3.68 46.8443 3.85196C47.2914 4.01246 47.75 4.17295 48.22 4.33345C48.4607 4.42516 48.6155 4.59139 48.6843 4.83213C48.7531 5.06141 48.7416 5.29068 48.6499 5.51996C48.5582 5.77217 48.3977 5.95559 48.1684 6.07023C47.9506 6.17341 47.6927 6.17341 47.3946 6.07023C47.0507 5.94413 46.6724 5.80656 46.2597 5.65753C45.847 5.5085 45.4113 5.34227 44.9528 5.15885C44.5401 4.99836 44.1904 4.84932 43.9038 4.71175C43.6287 4.57419 43.4052 4.44809 43.2332 4.33345C43.0612 4.20735 42.9294 4.09271 42.8377 3.98953C42.7574 3.87489 42.7059 3.76598 42.6829 3.66281H42.6657C42.6313 3.78891 42.5683 3.90928 42.4766 4.02392C42.3963 4.13856 42.2702 4.25893 42.0983 4.38503C41.9263 4.49967 41.697 4.62578 41.4104 4.76334C41.1353 4.90091 40.7914 5.04994 40.3787 5.21044C39.9201 5.39386 39.4845 5.56009 39.0718 5.70912C38.6591 5.85815 38.2808 5.99572 37.9369 6.12182C37.6388 6.22499 37.3809 6.21926 37.1631 6.10462C36.9452 5.98999 36.7847 5.80656 36.6816 5.55436C36.5899 5.32508 36.5784 5.09007 36.6472 4.84932C36.716 4.59712 36.8707 4.42516 37.1115 4.33345C37.5815 4.17295 38.0343 4.01246 38.4699 3.85196C38.917 3.68 39.4042 3.48512 39.9316 3.2673C40.5506 3.0151 40.9748 2.76289 41.2041 2.51069C41.4334 2.25848 41.548 1.94322 41.548 1.56491V1.16941C41.548 0.836952 41.6569 0.596211 41.8747 0.44718C42.104 0.298149 42.3677 0.223633 42.6657 0.223633C42.9638 0.223633 43.2217 0.298149 43.4395 0.44718C43.6688 0.596211 43.7835 0.836952 43.7835 1.16941V1.56491ZM43.7491 8.56363V10.5927H41.5824V8.56363H36.1313C35.8791 8.56363 35.6899 8.47765 35.5638 8.30569C35.4492 8.13374 35.3919 7.92166 35.3919 7.66945C35.3919 7.42871 35.4492 7.22235 35.5638 7.0504C35.6899 6.87844 35.8791 6.79246 36.1313 6.79246H49.2002C49.4524 6.79246 49.6358 6.87844 49.7504 7.0504C49.8765 7.22235 49.9396 7.42871 49.9396 7.66945C49.9396 7.92166 49.8765 8.13374 49.7504 8.30569C49.6358 8.47765 49.4524 8.56363 49.2002 8.56363H43.7491ZM46.6036 9.66417C47.1539 9.66417 47.5322 9.76735 47.7385 9.9737C47.9563 10.18 48.0652 10.5526 48.0652 11.0914V12.3467C48.0652 12.8855 47.9563 13.2581 47.7385 13.4645C47.5322 13.6708 47.1539 13.774 46.6036 13.774H39.6221C39.4501 13.774 39.3641 13.86 39.3641 14.0319V14.3414C39.3641 14.5134 39.4501 14.5994 39.6221 14.5994H47.7041C47.9449 14.5994 48.1226 14.6854 48.2372 14.8573C48.3518 15.0293 48.4092 15.2242 48.4092 15.442C48.4092 15.6713 48.3518 15.8661 48.2372 16.0266C48.1226 16.1986 47.9449 16.2846 47.7041 16.2846H38.6935C38.1432 16.2846 37.7592 16.1814 37.5414 15.9751C37.335 15.7687 37.2318 15.3961 37.2318 14.8573V13.5848C37.2318 13.046 37.335 12.6734 37.5414 12.4671C37.7592 12.2607 38.1432 12.1576 38.6935 12.1576H45.675C45.847 12.1576 45.9329 12.0716 45.9329 11.8996V11.6073C45.9329 11.4353 45.847 11.3494 45.675 11.3494H37.9025C37.6617 11.3494 37.484 11.2691 37.3694 11.1086C37.2548 10.9367 37.1974 10.736 37.1974 10.5068C37.1974 10.289 37.2548 10.0941 37.3694 9.92211C37.484 9.75015 37.6617 9.66417 37.9025 9.66417H46.6036Z" fill="var(--fill-0, #808080)"/>
<path id="Vector_8" d="M32.2427 4.78037C32.5063 4.78037 32.7012 4.87209 32.8273 5.05551C32.9534 5.23893 33.0165 5.45674 33.0165 5.70895C33.0165 5.96116 32.9534 6.17897 32.8273 6.3624C32.7012 6.54582 32.5063 6.63753 32.2427 6.63753H23.4384C22.8881 6.63753 22.5041 6.53435 22.2863 6.328C22.0799 6.12165 21.9767 5.74907 21.9767 5.21027V1.49596C21.9767 1.17497 22.0856 0.93996 22.3035 0.790929C22.5327 0.641897 22.7964 0.567383 23.0945 0.567383C23.3811 0.567383 23.6333 0.641897 23.8511 0.790929C24.0804 0.93996 24.195 1.17497 24.195 1.49596V4.38487C24.195 4.64854 24.3268 4.78037 24.5905 4.78037H32.2427ZM20.859 10.1455C20.5953 10.1455 20.4004 10.0538 20.2743 9.87035C20.1482 9.68693 20.0852 9.46912 20.0852 9.21691C20.0852 8.97617 20.1482 8.76408 20.2743 8.58066C20.4004 8.39724 20.5953 8.30553 20.859 8.30553H26.2757V6.05287H28.4424V8.30553H33.8591C34.1228 8.30553 34.3176 8.39724 34.4437 8.58066C34.5699 8.76408 34.6329 8.97617 34.6329 9.21691C34.6329 9.46912 34.5699 9.68693 34.4437 9.87035C34.3176 10.0538 34.1228 10.1455 33.8591 10.1455H20.859ZM32.2771 14.2037C32.5407 14.2037 32.7356 14.2954 32.8617 14.4788C32.9878 14.6623 33.0509 14.8801 33.0509 15.1323C33.0509 15.3845 32.9878 15.6023 32.8617 15.7857C32.7356 15.9692 32.5407 16.0609 32.2771 16.0609H23.404C22.8537 16.0609 22.4697 15.9577 22.2519 15.7513C22.0455 15.545 21.9423 15.1724 21.9423 14.6336V11.9683C21.9423 11.6473 22.0513 11.4122 22.2691 11.2632C22.4983 11.1142 22.762 11.0397 23.0601 11.0397C23.3467 11.0397 23.5989 11.1142 23.8167 11.2632C24.046 11.4122 24.1606 11.6473 24.1606 11.9683V13.8082C24.1606 14.0719 24.2924 14.2037 24.5561 14.2037H32.2771Z" fill="var(--fill-0, #808080)"/>
<path id="Vector_9" d="M5.79592 4.4021C5.79592 4.73455 5.81885 5.04407 5.8647 5.33067C5.91056 5.61727 5.97934 5.8924 6.07105 6.15607C6.17423 6.40828 6.30606 6.66049 6.46656 6.91269C6.62705 7.15343 6.82767 7.40564 7.06841 7.66931C7.37794 8.00177 7.68746 8.32849 7.99699 8.64948C8.31798 8.97047 8.61031 9.2456 8.87398 9.47488C9.09179 9.66977 9.17777 9.90478 9.13192 10.1799C9.08606 10.4436 8.97716 10.6671 8.8052 10.8506C8.72495 10.9308 8.62751 10.9996 8.51287 11.0569C8.39823 11.1142 8.27786 11.1543 8.15175 11.1773C8.03711 11.1887 7.91674 11.1773 7.79064 11.1429C7.676 11.1085 7.56709 11.0454 7.46392 10.9537C7.23464 10.7474 6.98243 10.5124 6.7073 10.2487C6.44363 9.97356 6.17423 9.68696 5.89909 9.3889C5.66981 9.14816 5.48066 8.94181 5.33163 8.76985C5.1826 8.59789 5.06223 8.44886 4.97052 8.32276C4.89027 8.18519 4.82722 8.07055 4.78136 7.97884C4.7355 7.88713 4.70684 7.80115 4.69538 7.7209H4.67818C4.65526 7.82407 4.62087 7.92725 4.57501 8.03043C4.52915 8.12214 4.46037 8.23678 4.36866 8.37434C4.28841 8.50045 4.17377 8.64948 4.02474 8.82144C3.87571 8.99339 3.68656 9.19974 3.45728 9.44049C3.18214 9.73855 2.89555 10.0309 2.59748 10.3175C2.31089 10.6041 1.99563 10.9079 1.65171 11.2289C1.4339 11.4237 1.18742 11.4868 0.912287 11.418C0.648617 11.3378 0.436534 11.2117 0.276039 11.0397C0.10408 10.8448 0.012369 10.6155 0.000905044 10.3519C-0.0105589 10.0882 0.0868844 9.85892 0.293235 9.66403C1.004 9.01059 1.66891 8.34569 2.28796 7.66931C2.5287 7.40564 2.72932 7.15343 2.88981 6.91269C3.05031 6.66049 3.17641 6.40828 3.26812 6.15607C3.3713 5.8924 3.44581 5.61727 3.49167 5.33067C3.53752 5.04407 3.56045 4.73455 3.56045 4.4021V1.92589C3.56045 1.59343 3.66936 1.35269 3.88717 1.20366C4.11645 1.05463 4.38012 0.980115 4.67818 0.980115C4.97625 0.980115 5.23419 1.05463 5.452 1.20366C5.68128 1.35269 5.79592 1.59343 5.79592 1.92589V4.4021ZM8.71922 6.55158C8.45555 6.55158 8.26066 6.45987 8.13456 6.27644C8.00845 6.09302 7.9454 5.87521 7.9454 5.623C7.9454 5.35933 8.00845 5.13579 8.13456 4.95236C8.26066 4.76894 8.45555 4.67723 8.71922 4.67723H10.8687V1.10049C10.8687 0.779497 10.9776 0.544486 11.1954 0.395455C11.4247 0.246424 11.6826 0.171907 11.9692 0.171907C12.2444 0.171907 12.4908 0.246424 12.7087 0.395455C12.9379 0.544486 13.0526 0.779497 13.0526 1.10049V14.2725C13.0526 14.5935 12.9379 14.8285 12.7087 14.9776C12.4908 15.1266 12.2444 15.2011 11.9692 15.2011C11.6826 15.2011 11.4247 15.1266 11.1954 14.9776C10.9776 14.8285 10.8687 14.5935 10.8687 14.2725V6.55158H8.71922Z" fill="var(--fill-0, #808080)"/>
<circle id="Ellipse 3373" cx="17.4421" cy="7.41846" r="1.25" fill="var(--fill-0, #808080)"/>
</g>
</svg>
