<svg preserveAspectRatio="none" width="100%" height="100%" overflow="visible" style="display: block;" viewBox="0 0 79.8415 16.2845" fill="none" xmlns="http://www.w3.org/2000/svg">
<g id="&#236;&#131;&#129;&#235;&#139;&#168;">
<path id="Vector" d="M78.741 1.10043C79.0391 1.10043 79.297 1.17494 79.5148 1.32398C79.7326 1.47301 79.8415 1.71375 79.8415 2.0462V12.5873C79.8415 12.9197 79.7326 13.1605 79.5148 13.3095C79.297 13.4585 79.0391 13.533 78.741 13.533C78.4429 13.533 78.185 13.4585 77.9672 13.3095C77.7494 13.1605 77.6405 12.9197 77.6405 12.5873V2.0462C77.6405 1.71375 77.7494 1.47301 77.9672 1.32398C78.185 1.17494 78.4429 1.10043 78.741 1.10043Z" fill="var(--fill-0, #808080)"/>
<path id="Vector_2" d="M70.6346 1.10043C70.9327 1.10043 71.1906 1.16921 71.4084 1.30678C71.6262 1.44435 71.8154 1.71375 71.9759 2.11498L75.845 12.0886C75.9711 12.4211 75.9711 12.7076 75.845 12.9484C75.7189 13.1891 75.5125 13.3554 75.2259 13.4471C74.9393 13.5388 74.6527 13.5502 74.3661 13.4815C74.091 13.4127 73.8904 13.1949 73.7643 12.828L72.7669 10.0767H68.4335L67.419 12.8968C67.2929 13.2293 67.098 13.4299 66.8343 13.4987C66.5821 13.556 66.3184 13.5388 66.0433 13.4471C65.7682 13.3554 65.5676 13.2006 65.4414 12.9828C65.3153 12.765 65.3153 12.4956 65.4414 12.1746L69.3105 2.11498C69.4596 1.71375 69.643 1.44435 69.8608 1.30678C70.0901 1.16921 70.348 1.10043 70.6346 1.10043ZM70.6002 3.85177C70.5085 4.19569 70.4168 4.50521 70.3251 4.78035C70.2448 5.04402 70.1359 5.37074 69.9984 5.76051L69.087 8.25392H72.1135L71.2193 5.76051C71.0702 5.35927 70.9499 5.01536 70.8582 4.72876C70.7779 4.44216 70.6919 4.14983 70.6002 3.85177Z" fill="var(--fill-0, #808080)"/>
<path id="Vector_3" d="M48.3967 8.16802C47.8464 8.16802 47.4624 8.06484 47.2446 7.85849C47.0382 7.65214 46.935 7.27956 46.935 6.74076V1.66798C46.935 1.34699 47.044 1.11198 47.2618 0.962944C47.491 0.813913 47.749 0.739398 48.0356 0.739398C48.3336 0.739398 48.5916 0.813913 48.8094 0.962944C49.0387 1.11198 49.1533 1.34699 49.1533 1.66798V5.89816C49.1533 6.16183 49.2852 6.29367 49.5488 6.29367C50.592 6.29367 51.5607 6.27074 52.4549 6.22488C53.3491 6.16756 54.2146 6.08158 55.0515 5.96695C55.3152 5.93255 55.5215 5.99561 55.6706 6.1561C55.8311 6.3166 55.9228 6.52295 55.9457 6.77515C55.9686 7.03882 55.9342 7.27383 55.8425 7.48018C55.7508 7.67507 55.5788 7.78971 55.3266 7.8241C54.9713 7.86996 54.5758 7.91581 54.1401 7.96167C53.716 7.99606 53.223 8.03045 52.6613 8.06484C52.0995 8.09923 51.469 8.12789 50.7697 8.15082C50.0704 8.16229 49.2794 8.16802 48.3967 8.16802ZM59.1785 8.58072C59.1785 8.90171 59.0639 9.13672 58.8346 9.28575C58.6168 9.43478 58.3646 9.5093 58.078 9.5093C57.7914 9.5093 57.5334 9.43478 57.3042 9.28575C57.0863 9.13672 56.9774 8.90171 56.9774 8.58072V0.962944C56.9774 0.641954 57.0863 0.406944 57.3042 0.257913C57.5334 0.108882 57.7914 0.0343665 58.078 0.0343665C58.3646 0.0343665 58.6168 0.108882 58.8346 0.257913C59.0639 0.406944 59.1785 0.641954 59.1785 0.962944V8.58072ZM48.9126 12.9485C48.9126 12.3867 49.0272 11.8995 49.2565 11.4868C49.4972 11.0627 49.8411 10.713 50.2882 10.4379C50.7353 10.1627 51.2741 9.95639 51.9047 9.81882C52.5466 9.68126 53.2689 9.61247 54.0713 9.61247C54.8738 9.61247 55.5903 9.68126 56.2208 9.81882C56.8628 9.95639 57.4073 10.1627 57.8544 10.4379C58.3015 10.713 58.6397 11.0627 58.869 11.4868C59.1097 11.8995 59.2301 12.3867 59.2301 12.9485C59.2301 14.0719 58.7715 14.9088 57.8544 15.4591C56.9373 16.0093 55.6763 16.2845 54.0713 16.2845C52.4664 16.2845 51.2054 16.0093 50.2882 15.4591C49.3711 14.9088 48.9126 14.0719 48.9126 12.9485ZM57.0462 12.9485C57.0462 12.467 56.8169 12.0829 56.3584 11.7963C55.9113 11.5098 55.1489 11.3665 54.0713 11.3665C52.9937 11.3665 52.2256 11.5098 51.7671 11.7963C51.32 12.0829 51.0964 12.467 51.0964 12.9485C51.0964 13.43 51.32 13.814 51.7671 14.1006C52.2256 14.3872 52.9937 14.5305 54.0713 14.5305C55.1489 14.5305 55.9113 14.3872 56.3584 14.1006C56.8169 13.814 57.0462 13.43 57.0462 12.9485Z" fill="var(--fill-0, #808080)"/>
<path id="Vector_4" d="M32.2474 2.95767C31.9838 2.95767 31.7889 2.86596 31.6628 2.68253C31.5367 2.49911 31.4736 2.28129 31.4736 2.02909C31.4736 1.77688 31.5367 1.55907 31.6628 1.37565C31.7889 1.19222 31.9838 1.10051 32.2474 1.10051H37.0967C37.6469 1.10051 38.0252 1.20369 38.2316 1.41004C38.4494 1.61639 38.5583 1.98896 38.5583 2.52777V5.70901C38.5583 6.24781 38.4494 6.62039 38.2316 6.82674C38.0252 7.03309 37.6469 7.13627 37.0967 7.13627H34.053C33.7893 7.13627 33.6575 7.2681 33.6575 7.53177V9.21697C33.6575 9.48064 33.7893 9.61247 34.053 9.61247C35.016 9.61247 35.9331 9.58954 36.8043 9.54369C37.6871 9.49783 38.5297 9.41759 39.3321 9.30295C39.5958 9.26855 39.8021 9.33161 39.9512 9.4921C40.1117 9.6526 40.2034 9.85321 40.2263 10.094C40.2492 10.3576 40.2148 10.5926 40.1231 10.799C40.0314 10.9939 39.8595 11.1085 39.6073 11.1429C39.2748 11.1888 38.8965 11.2346 38.4723 11.2805C38.0482 11.3149 37.5667 11.3493 37.0279 11.3836C36.4891 11.4066 35.8815 11.4295 35.2051 11.4524C34.5402 11.4639 33.7893 11.4696 32.9525 11.4696C32.4022 11.4696 32.0181 11.3665 31.8003 11.1601C31.594 10.9538 31.4908 10.5812 31.4908 10.0424V6.77515C31.4908 6.23635 31.594 5.86377 31.8003 5.65742C32.0181 5.45107 32.4022 5.34789 32.9525 5.34789H35.9961C36.2598 5.34789 36.3916 5.21606 36.3916 4.95239V3.35317C36.3916 3.0895 36.2598 2.95767 35.9961 2.95767H32.2474ZM41.7911 6.96431H40.1403C39.8652 6.96431 39.6646 6.8726 39.5385 6.68917C39.4124 6.50575 39.3493 6.2822 39.3493 6.01853C39.3493 5.75486 39.4124 5.53132 39.5385 5.34789C39.6646 5.16447 39.8652 5.07276 40.1403 5.07276H41.7911V0.962944C41.7911 0.641954 41.9 0.406944 42.1179 0.257913C42.3471 0.108882 42.6051 0.0343665 42.8917 0.0343665C43.1668 0.0343665 43.4133 0.108882 43.6311 0.257913C43.8604 0.406944 43.975 0.641954 43.975 0.962944V14.135C43.975 14.456 43.8604 14.691 43.6311 14.84C43.4133 14.9891 43.1668 15.0636 42.8917 15.0636C42.6051 15.0636 42.3471 14.9891 42.1179 14.84C41.9 14.691 41.7911 14.456 41.7911 14.135V6.96431Z" fill="var(--fill-0, #808080)"/>
<path id="Vector_5" d="M15.908 6.1389C15.908 4.43078 16.2519 3.13536 16.9397 2.25264C17.6276 1.35845 18.6651 0.911356 20.0522 0.911356C21.4393 0.911356 22.4768 1.35845 23.1647 2.25264C23.8525 3.13536 24.1964 4.43078 24.1964 6.1389C24.1964 7.84703 23.8525 9.14818 23.1647 10.0424C22.4768 10.9251 21.4393 11.3665 20.0522 11.3665C18.6651 11.3665 17.6276 10.9251 16.9397 10.0424C16.2519 9.14818 15.908 7.84703 15.908 6.1389ZM22.0813 6.1389C22.0813 5.04983 21.9323 4.22443 21.6342 3.6627C21.3362 3.10097 20.8088 2.8201 20.0522 2.8201C19.2956 2.8201 18.7682 3.10097 18.4702 3.6627C18.1721 4.22443 18.0231 5.04983 18.0231 6.1389C18.0231 7.22798 18.1721 8.05338 18.4702 8.61511C18.7682 9.17684 19.2956 9.45771 20.0522 9.45771C20.8088 9.45771 21.3362 9.17684 21.6342 8.61511C21.9323 8.05338 22.0813 7.22798 22.0813 6.1389ZM28.5642 14.135C28.5642 14.456 28.4495 14.691 28.2202 14.84C28.0024 14.9891 27.7445 15.0636 27.4464 15.0636C27.1598 15.0636 26.9019 14.9891 26.6726 14.84C26.4548 14.691 26.3459 14.456 26.3459 14.135V0.962944C26.3459 0.641954 26.4548 0.406944 26.6726 0.257913C26.9019 0.108882 27.1598 0.0343665 27.4464 0.0343665C27.7445 0.0343665 28.0024 0.108882 28.2202 0.257913C28.4495 0.406944 28.5642 0.641954 28.5642 0.962944V14.135Z" fill="var(--fill-0, #808080)"/>
<path id="Vector_6" d="M4.78045 4.83204C5.36511 4.83204 5.89246 4.91802 6.36248 5.08998C6.84396 5.25048 7.2452 5.47975 7.56619 5.77782C7.89864 6.07588 8.15085 6.44272 8.32281 6.87835C8.50623 7.30252 8.59794 7.77254 8.59794 8.28842C8.59794 8.80429 8.50623 9.28004 8.32281 9.71567C8.15085 10.1398 7.89864 10.501 7.56619 10.799C7.2452 11.0971 6.84396 11.3321 6.36248 11.504C5.89246 11.6645 5.36511 11.7448 4.78045 11.7448C4.19579 11.7448 3.66272 11.6645 3.18124 11.504C2.71122 11.3321 2.30998 11.0971 1.97753 10.799C1.65654 10.501 1.40433 10.1398 1.22091 9.71567C1.04895 9.28004 0.962969 8.80429 0.962969 8.28842C0.962969 7.77254 1.04895 7.30252 1.22091 6.87835C1.40433 6.44272 1.65654 6.07588 1.97753 5.77782C2.30998 5.47975 2.71122 5.25048 3.18124 5.08998C3.66272 4.91802 4.19579 4.83204 4.78045 4.83204ZM3.67992 2.11509V0.928578C3.67992 0.607588 3.78883 0.372577 4.00664 0.223547C4.23592 0.0745156 4.49386 0 4.78045 0C5.06705 0 5.31926 0.0745156 5.53707 0.223547C5.76635 0.372577 5.88099 0.607588 5.88099 0.928578V2.11509H8.58074C8.84441 2.11509 9.0393 2.2068 9.1654 2.39023C9.29151 2.57365 9.35456 2.79146 9.35456 3.04367C9.35456 3.29588 9.29151 3.51369 9.1654 3.69711C9.0393 3.88054 8.84441 3.97225 8.58074 3.97225H0.773815C0.510145 3.97225 0.315258 3.88054 0.189155 3.69711C0.0630515 3.51369 0 3.29588 0 3.04367C0 2.79146 0.0630515 2.57365 0.189155 2.39023C0.315258 2.2068 0.510145 2.11509 0.773815 2.11509H3.67992ZM4.78045 9.99081C5.33072 9.99081 5.77208 9.84178 6.10454 9.54371C6.43699 9.23419 6.60322 8.81576 6.60322 8.28842C6.60322 7.76107 6.43699 7.34837 6.10454 7.05031C5.77208 6.74079 5.33072 6.58602 4.78045 6.58602C4.23019 6.58602 3.78883 6.74079 3.45637 7.05031C3.12392 7.34837 2.95769 7.76107 2.95769 8.28842C2.95769 8.81576 3.12392 9.23419 3.45637 9.54371C3.78883 9.84178 4.23019 9.99081 4.78045 9.99081ZM12.5186 5.27914H14.135C14.4101 5.27914 14.6108 5.37085 14.7369 5.55427C14.863 5.73769 14.926 5.96124 14.926 6.22491C14.926 6.48858 14.863 6.71786 14.7369 6.91274C14.6108 7.09617 14.4101 7.18788 14.135 7.18788H12.5186V14.135C12.5186 14.456 12.404 14.691 12.1747 14.84C11.9569 14.9891 11.7104 15.0636 11.4353 15.0636C11.1487 15.0636 10.8907 14.9891 10.6614 14.84C10.4436 14.691 10.3347 14.456 10.3347 14.135V0.962969C10.3347 0.64198 10.4436 0.406969 10.6614 0.257938C10.8907 0.108907 11.1487 0.0343915 11.4353 0.0343915C11.7104 0.0343915 11.9569 0.108907 12.1747 0.257938C12.404 0.406969 12.5186 0.64198 12.5186 0.962969V5.27914Z" fill="var(--fill-0, #808080)"/>
</g>
</svg>
